<svg version="1.1" xmlns="http://www.w3.org/2000/svg" xmlns:xlink="http://www.w3.org/1999/xlink" x="0px" y="0px" viewBox="0 0 1000 1000" enable-background="new 0 0 1000 1000" xml:space="preserve">
<metadata fill="#da4ea2"> Svg Vector Icons : http://www.onlinewebfonts.com/icon </metadata>
<g><g transform="translate(0.000000,512.000000) scale(0.100000,-0.100000)"><path d="M1833.9,4985.5c-32.5-21.1-68.9-65.1-82.3-99.6c-15.3-44-21.1-467.2-21.1-1451.4V2046.3l-264.2,262.3c-231.7,227.9-273.8,262.3-327.4,262.3c-130.2,0-210.6-80.4-212.5-210.6v-86.2l465.3-463.4l463.4-465.3h86.2h86.2l463.4,465.3c438.5,438.5,465.3,469.1,465.3,534.2c0,137.9-82.3,225.9-212.5,225.9c-53.6,0-95.7-32.6-327.4-262.3l-264.2-262.3v1392.1c0,1526.1,1.9,1493.5-113,1552.9C1962.2,5031.4,1906.6,5029.5,1833.9,4985.5z" fill="#da4ea2"/><path d="M5629,3777.2c-204.9-51.7-446.2-245.1-528.5-423.2c-24.9-51.7-55.5-91.9-65.1-86.2c-208.7,93.8-277.6,113-423.2,114.9c-101.5,0-191.5-11.5-264.2-34.5c-220.2-70.9-425.1-264.3-513.2-484.5l-46-111.1l-9.6-1822.9l-9.6-1821l-383,285.3c-390.6,292.9-540,381-708.5,419.3c-128.3,28.7-365.7,28.7-492.1,0c-325.5-78.5-607-314-668.3-561c-32.5-132.1-13.4-310.2,46-425.1c36.4-72.8,428.9-474.9,1625.7-1667.8C4918.6-4565.6,4882.2-4534.9,5248-4667c298.7-107.2,428.9-118.7,1219.7-111.1c691.2,7.7,716.1,9.6,894.2,57.5c850.2,229.8,1430.4,802.3,1660.1,1641l51.7,183.8v1409.3V-79.2l-70.8,143.6c-88.1,178.1-214.5,302.5-394.4,386.8c-120.6,57.4-141.7,61.3-338.9,61.3c-197.2,0-220.2-3.8-331.3-59.4l-116.8-57.4l-49.8,97.7c-61.3,126.4-247,304.5-381.1,365.7c-214.5,97.7-465.3,101.5-675.9,7.7l-82.3-36.4v1145c0,1275.3,3.8,1242.7-132.1,1451.4c-86.2,134-239.4,258.5-388.7,315.9C5994.7,3786.8,5743.9,3804,5629,3777.2z M6038.8,3321.5c59.3-36.4,99.6-82.3,137.9-155.1l53.6-101.5V1265c0-1997.1-7.7-1886.1,128.3-1941.6c51.7-23,80.4-24.9,130.2-7.6c130.2,42.1,132.1,55.5,143.6,505.5c9.6,365.7,13.4,411.7,51.7,480.6c78.5,147.4,201.1,220.2,369.6,220.2c160.9,0,308.3-101.5,371.5-252.8c24.9-55.5,30.6-151.3,30.6-440.4c0-331.3,3.8-375.3,36.4-428.9c51.7-84.2,147.4-114.9,237.4-76.6c101.5,42.2,122.6,91.9,132.1,310.2c7.6,168.5,17.2,206.8,61.3,283.4c91.9,155.1,287.2,233.6,467.2,183.8c113-28.7,237.4-155.1,270-268.1c17.2-67,21.1-386.8,17.2-1369.1c-7.6-1252.3-9.6-1286.7-49.8-1443.8c-174.3-658.7-672.1-1156.5-1336.5-1336.5c-189.6-51.7-191.5-51.7-898.1-51.7c-610.8-1.9-725.7,1.9-836.8,30.6c-174.2,45.9-358.1,130.2-499.8,233.6c-65.1,47.9-798.5,765.9-1631.4,1598.8L1912.4-990.6v84.2c0,72.8,11.5,97.7,67,155.1c36.4,38.3,114.9,91.9,172.3,120.6c90,44.1,128.3,51.7,277.6,51.7c136,0,191.5-9.6,260.4-40.2c47.9-23,329.3-222.1,622.3-442.3c294.9-222.1,553.4-411.7,576.4-423.2c68.9-38.3,170.4-26.8,229.8,23l53.6,46l9.6,2046.9l9.6,2045l42.1,76.6c78.5,147.4,201.1,220.2,369.6,220.2c170.4,0,338.9-124.5,381-281.5c13.4-47.9,21.1-608.9,21.1-1648.6c0-1752-5.7-1664,128.3-1719.5c82.3-36.4,178.1-9.6,235.5,63.2c38.3,47.9,38.3,72.8,38.3,1834.4c0,1993.3-5.7,1912.9,130.2,2045C5675,3401.9,5870.3,3423,6038.8,3321.5z" fill="#da4ea2"/></g></g>
</svg>